<mxfile host="app.diagrams.net" modified="2023-04-18T17:43:02.909Z" agent="Mozilla/5.0 (Windows NT 10.0; Win64; x64; rv:109.0) Gecko/20100101 Firefox/111.0" etag="4nGcEC5Zd4Fq89WpYQJ8" version="21.1.8" type="device">
  <diagram name="Страница 1" id="nJV3fG_oK9SSOodvqIoj">
    <mxGraphModel dx="1051" dy="538" grid="1" gridSize="10" guides="1" tooltips="1" connect="0" arrows="1" fold="1" page="1" pageScale="1" pageWidth="827" pageHeight="1169" math="0" shadow="0">
      <root>
        <mxCell id="0" />
        <mxCell id="1" parent="0" />
        <mxCell id="yLib2ikT-VHmUTMyQRbx-6" value="" style="edgeStyle=orthogonalEdgeStyle;rounded=0;orthogonalLoop=1;jettySize=auto;html=1;" parent="1" source="yLib2ikT-VHmUTMyQRbx-1" target="yLib2ikT-VHmUTMyQRbx-3" edge="1">
          <mxGeometry relative="1" as="geometry" />
        </mxCell>
        <mxCell id="yLib2ikT-VHmUTMyQRbx-1" value="start" style="ellipse;whiteSpace=wrap;html=1;aspect=fixed;" parent="1" vertex="1">
          <mxGeometry x="155" y="10" width="80" height="80" as="geometry" />
        </mxCell>
        <mxCell id="yLib2ikT-VHmUTMyQRbx-7" value="" style="edgeStyle=orthogonalEdgeStyle;rounded=0;orthogonalLoop=1;jettySize=auto;html=1;" parent="1" source="yLib2ikT-VHmUTMyQRbx-3" target="yLib2ikT-VHmUTMyQRbx-4" edge="1">
          <mxGeometry relative="1" as="geometry" />
        </mxCell>
        <mxCell id="yLib2ikT-VHmUTMyQRbx-3" value="&lt;div&gt;ввод countStr, ввод значений&lt;/div&gt;&lt;div&gt;&amp;nbsp;в массив array[countStr]&lt;/div&gt;" style="shape=parallelogram;html=1;strokeWidth=1;perimeter=parallelogramPerimeter;whiteSpace=wrap;rounded=1;arcSize=12;size=0.23;" parent="1" vertex="1">
          <mxGeometry x="35" y="120" width="320" height="50" as="geometry" />
        </mxCell>
        <mxCell id="bQTxKDOd2AOO6AVUDDyO-2" value="" style="edgeStyle=orthogonalEdgeStyle;rounded=0;orthogonalLoop=1;jettySize=auto;html=1;" parent="1" source="yLib2ikT-VHmUTMyQRbx-4" target="k6_uojSDHCdTjrBgOMYk-1" edge="1">
          <mxGeometry relative="1" as="geometry">
            <Array as="points">
              <mxPoint x="200" y="400" />
            </Array>
          </mxGeometry>
        </mxCell>
        <mxCell id="yLib2ikT-VHmUTMyQRbx-4" value="&lt;div&gt;int count=0&lt;/div&gt;&lt;div&gt;int i=0; new newArray[countStr]&lt;br&gt;&lt;/div&gt;" style="rounded=1;whiteSpace=wrap;html=1;absoluteArcSize=1;arcSize=14;strokeWidth=1;" parent="1" vertex="1">
          <mxGeometry x="100" y="200" width="190" height="70" as="geometry" />
        </mxCell>
        <mxCell id="PBNZfOZcsa5Y-hExRusX-22" value="" style="edgeStyle=orthogonalEdgeStyle;rounded=0;orthogonalLoop=1;jettySize=auto;html=1;" edge="1" parent="1" source="k6_uojSDHCdTjrBgOMYk-5" target="bQTxKDOd2AOO6AVUDDyO-52">
          <mxGeometry relative="1" as="geometry" />
        </mxCell>
        <mxCell id="k6_uojSDHCdTjrBgOMYk-5" value="&lt;div&gt;вывод array&lt;/div&gt;&lt;div&gt;вывод finArray&lt;br&gt;&lt;/div&gt;" style="strokeWidth=1;html=1;shape=mxgraph.flowchart.document2;whiteSpace=wrap;size=0.25;" parent="1" vertex="1">
          <mxGeometry x="796.25" y="515" width="167.5" height="70" as="geometry" />
        </mxCell>
        <mxCell id="k6_uojSDHCdTjrBgOMYk-10" value="да" style="text;html=1;align=center;verticalAlign=middle;resizable=0;points=[];autosize=1;strokeColor=none;fillColor=none;" parent="1" vertex="1">
          <mxGeometry x="195" y="410" width="40" height="30" as="geometry" />
        </mxCell>
        <mxCell id="bQTxKDOd2AOO6AVUDDyO-49" value="" style="edgeStyle=orthogonalEdgeStyle;rounded=0;orthogonalLoop=1;jettySize=auto;html=1;" parent="1" source="k6_uojSDHCdTjrBgOMYk-1" edge="1">
          <mxGeometry relative="1" as="geometry">
            <mxPoint x="195" y="450" as="targetPoint" />
          </mxGeometry>
        </mxCell>
        <mxCell id="PBNZfOZcsa5Y-hExRusX-20" style="edgeStyle=orthogonalEdgeStyle;rounded=0;orthogonalLoop=1;jettySize=auto;html=1;" edge="1" parent="1" source="k6_uojSDHCdTjrBgOMYk-1">
          <mxGeometry relative="1" as="geometry">
            <mxPoint x="660" y="400" as="targetPoint" />
            <Array as="points">
              <mxPoint x="660" y="360" />
            </Array>
          </mxGeometry>
        </mxCell>
        <mxCell id="k6_uojSDHCdTjrBgOMYk-1" value="i&amp;lt;array.Length" style="strokeWidth=1;html=1;shape=mxgraph.flowchart.decision;whiteSpace=wrap;" parent="1" vertex="1">
          <mxGeometry x="110" y="310" width="170" height="100" as="geometry" />
        </mxCell>
        <mxCell id="bQTxKDOd2AOO6AVUDDyO-12" value="нет" style="text;html=1;align=center;verticalAlign=middle;resizable=0;points=[];autosize=1;strokeColor=none;fillColor=none;" parent="1" vertex="1">
          <mxGeometry x="330" y="330" width="40" height="30" as="geometry" />
        </mxCell>
        <mxCell id="bQTxKDOd2AOO6AVUDDyO-52" value="stop" style="ellipse;whiteSpace=wrap;html=1;strokeWidth=1;" parent="1" vertex="1">
          <mxGeometry x="840" y="630" width="80" height="80" as="geometry" />
        </mxCell>
        <mxCell id="0v_MR3KI8PjabMFQm1Jn-4" value="" style="edgeStyle=orthogonalEdgeStyle;rounded=0;orthogonalLoop=1;jettySize=auto;html=1;" parent="1" source="0v_MR3KI8PjabMFQm1Jn-2" target="0v_MR3KI8PjabMFQm1Jn-3" edge="1">
          <mxGeometry relative="1" as="geometry" />
        </mxCell>
        <mxCell id="PBNZfOZcsa5Y-hExRusX-5" value="" style="edgeStyle=orthogonalEdgeStyle;rounded=0;orthogonalLoop=1;jettySize=auto;html=1;" edge="1" parent="1" source="0v_MR3KI8PjabMFQm1Jn-2" target="0v_MR3KI8PjabMFQm1Jn-14">
          <mxGeometry relative="1" as="geometry" />
        </mxCell>
        <mxCell id="0v_MR3KI8PjabMFQm1Jn-2" value="array[i].Length&amp;lt;=3" style="rhombus;whiteSpace=wrap;html=1;" parent="1" vertex="1">
          <mxGeometry x="110" y="450" width="170" height="110" as="geometry" />
        </mxCell>
        <mxCell id="0v_MR3KI8PjabMFQm1Jn-20" style="edgeStyle=orthogonalEdgeStyle;rounded=0;orthogonalLoop=1;jettySize=auto;html=1;entryX=1;entryY=0.58;entryDx=0;entryDy=0;entryPerimeter=0;" parent="1" source="0v_MR3KI8PjabMFQm1Jn-3" target="0v_MR3KI8PjabMFQm1Jn-14" edge="1">
          <mxGeometry relative="1" as="geometry">
            <mxPoint x="270" y="650" as="targetPoint" />
            <Array as="points">
              <mxPoint x="450" y="650" />
            </Array>
          </mxGeometry>
        </mxCell>
        <mxCell id="0v_MR3KI8PjabMFQm1Jn-3" value="newArray[count]=array[i]&lt;br&gt;&amp;nbsp;&amp;nbsp;&amp;nbsp; count++" style="whiteSpace=wrap;html=1;" parent="1" vertex="1">
          <mxGeometry x="365" y="475" width="155" height="60" as="geometry" />
        </mxCell>
        <mxCell id="0v_MR3KI8PjabMFQm1Jn-5" value="да" style="text;html=1;align=center;verticalAlign=middle;resizable=0;points=[];autosize=1;strokeColor=none;fillColor=none;" parent="1" vertex="1">
          <mxGeometry x="310" y="475" width="40" height="30" as="geometry" />
        </mxCell>
        <mxCell id="0v_MR3KI8PjabMFQm1Jn-9" value="нет" style="text;html=1;align=center;verticalAlign=middle;resizable=0;points=[];autosize=1;strokeColor=none;fillColor=none;" parent="1" vertex="1">
          <mxGeometry x="195" y="570" width="40" height="30" as="geometry" />
        </mxCell>
        <mxCell id="0v_MR3KI8PjabMFQm1Jn-19" style="edgeStyle=orthogonalEdgeStyle;rounded=0;orthogonalLoop=1;jettySize=auto;html=1;" parent="1" source="0v_MR3KI8PjabMFQm1Jn-14" edge="1">
          <mxGeometry relative="1" as="geometry">
            <mxPoint x="195" y="290" as="targetPoint" />
            <Array as="points">
              <mxPoint x="40" y="650" />
              <mxPoint x="40" y="290" />
            </Array>
          </mxGeometry>
        </mxCell>
        <mxCell id="0v_MR3KI8PjabMFQm1Jn-14" value="i++" style="whiteSpace=wrap;html=1;" parent="1" vertex="1">
          <mxGeometry x="135" y="620" width="120" height="50" as="geometry" />
        </mxCell>
        <mxCell id="PBNZfOZcsa5Y-hExRusX-12" value="" style="edgeStyle=orthogonalEdgeStyle;rounded=0;orthogonalLoop=1;jettySize=auto;html=1;" edge="1" parent="1" source="PBNZfOZcsa5Y-hExRusX-7" target="PBNZfOZcsa5Y-hExRusX-11">
          <mxGeometry relative="1" as="geometry">
            <Array as="points">
              <mxPoint x="660" y="450" />
              <mxPoint x="660" y="450" />
            </Array>
          </mxGeometry>
        </mxCell>
        <mxCell id="PBNZfOZcsa5Y-hExRusX-7" value="&lt;div&gt;int i=0; new finArray[count]&lt;br&gt;&lt;/div&gt;" style="rounded=1;whiteSpace=wrap;html=1;absoluteArcSize=1;arcSize=14;strokeWidth=1;" vertex="1" parent="1">
          <mxGeometry x="570" y="400" width="170" height="40" as="geometry" />
        </mxCell>
        <mxCell id="PBNZfOZcsa5Y-hExRusX-14" value="" style="edgeStyle=orthogonalEdgeStyle;rounded=0;orthogonalLoop=1;jettySize=auto;html=1;" edge="1" parent="1" source="PBNZfOZcsa5Y-hExRusX-11" target="PBNZfOZcsa5Y-hExRusX-13">
          <mxGeometry relative="1" as="geometry" />
        </mxCell>
        <mxCell id="PBNZfOZcsa5Y-hExRusX-23" value="" style="edgeStyle=orthogonalEdgeStyle;rounded=0;orthogonalLoop=1;jettySize=auto;html=1;" edge="1" parent="1" source="PBNZfOZcsa5Y-hExRusX-11" target="k6_uojSDHCdTjrBgOMYk-5">
          <mxGeometry relative="1" as="geometry" />
        </mxCell>
        <mxCell id="PBNZfOZcsa5Y-hExRusX-11" value="i&amp;lt;count" style="strokeWidth=1;html=1;shape=mxgraph.flowchart.decision;whiteSpace=wrap;" vertex="1" parent="1">
          <mxGeometry x="580" y="500" width="160" height="100" as="geometry" />
        </mxCell>
        <mxCell id="PBNZfOZcsa5Y-hExRusX-19" style="edgeStyle=orthogonalEdgeStyle;rounded=0;orthogonalLoop=1;jettySize=auto;html=1;" edge="1" parent="1" source="PBNZfOZcsa5Y-hExRusX-13">
          <mxGeometry relative="1" as="geometry">
            <mxPoint x="660" y="460" as="targetPoint" />
            <Array as="points">
              <mxPoint x="550" y="670" />
              <mxPoint x="550" y="460" />
            </Array>
          </mxGeometry>
        </mxCell>
        <mxCell id="PBNZfOZcsa5Y-hExRusX-13" value="&lt;div&gt;finArray[i]=newArray[i]&lt;/div&gt;&lt;div&gt;i++&lt;br&gt;&lt;/div&gt;" style="whiteSpace=wrap;html=1;strokeWidth=1;" vertex="1" parent="1">
          <mxGeometry x="575" y="640" width="170" height="60" as="geometry" />
        </mxCell>
        <mxCell id="PBNZfOZcsa5Y-hExRusX-16" value="да" style="text;html=1;align=center;verticalAlign=middle;resizable=0;points=[];autosize=1;strokeColor=none;fillColor=none;" vertex="1" parent="1">
          <mxGeometry x="650" y="600" width="40" height="30" as="geometry" />
        </mxCell>
        <mxCell id="PBNZfOZcsa5Y-hExRusX-24" value="нет" style="text;html=1;align=center;verticalAlign=middle;resizable=0;points=[];autosize=1;strokeColor=none;fillColor=none;" vertex="1" parent="1">
          <mxGeometry x="745" y="520" width="40" height="30" as="geometry" />
        </mxCell>
      </root>
    </mxGraphModel>
  </diagram>
</mxfile>
